<?xml version="1.0" encoding="utf-8"?>
<!-- Generator: Adobe Illustrator 23.0.1, SVG Export Plug-In . SVG Version: 6.00 Build 0)  -->
<svg version="1.1" id="Capa_1" xmlns="http://www.w3.org/2000/svg" xmlns:xlink="http://www.w3.org/1999/xlink" x="0px" y="0px"
	 viewBox="0 0 5 3.8" style="enable-background:new 0 0 5 3.8;" xml:space="preserve">
<g>
	<path d="M4.8,3.7H1.4c-0.1,0-0.2-0.1-0.2-0.2s0.1-0.2,0.2-0.2h3.3C4.9,3.2,5,3.3,5,3.4S4.9,3.7,4.8,3.7z"/>
	<path d="M4.8,2.1H1.4C1.3,2.1,1.2,2,1.2,1.9s0.1-0.2,0.2-0.2h3.3C4.9,1.6,5,1.7,5,1.9C5,2,4.9,2.1,4.8,2.1z"/>
	<path d="M4.8,0.6H1.4c-0.1,0-0.2-0.1-0.2-0.2s0.1-0.2,0.2-0.2h3.3C4.9,0.1,5,0.2,5,0.3S4.9,0.6,4.8,0.6z"/>
	<circle cx="0.3" cy="0.3" r="0.3"/>
	<circle cx="0.3" cy="1.9" r="0.3"/>
	<circle cx="0.3" cy="3.4" r="0.3"/>
</g>
</svg>
