<?xml version="1.0" encoding="UTF-8"?>
<svg width="20px" height="15px" viewBox="0 0 20 15" version="1.1" xmlns="http://www.w3.org/2000/svg" xmlns:xlink="http://www.w3.org/1999/xlink">
    <!-- Generator: Sketch 57.1 (83088) - https://sketch.com -->
    <title>Combined Shape</title>
    <desc>Created with Sketch.</desc>
    <g id="Page-1" stroke="none" stroke-width="1" fill="none" fill-rule="evenodd">
        <g id="1440-x-900" transform="translate(-909.000000, -94.000000)" fill="#B8394B" fill-rule="nonzero">
            <g id="Group-9" transform="translate(909.000000, 89.000000)">
                <path d="M6.29462993,14.375 C6.43593994,14.4687071 6.56664447,14.5562629 6.68449933,14.6360627 C7.10741588,14.9237365 7.4503026,15.1481588 7.71370244,15.3089953 C7.9768489,15.4701996 8.32730063,15.634513 8.76502143,15.8022697 C9.12978876,15.9422621 9.47379354,16.0237037 9.79728713,16.0469622 L9.98892396,16.0539383 L10.011076,16.0539383 C10.3893989,16.0539383 10.7972216,15.9702271 11.2349786,15.8022697 C11.672446,15.634513 12.0228977,15.4701996 12.2862976,15.3089953 C12.5497336,15.1481588 12.8928013,14.923703 13.3155007,14.6360627 L13.5066891,14.5087658 L13.706456,14.3764041 L19.3548387,19.593479 C19.0718877,19.8247833 18.746175,19.9582344 18.3766748,19.9916428 L18.188271,20 L1.81191,20 C1.42781648,20 1.08746866,19.8995924 0.790205529,19.7009666 L0.64516129,19.593479 L6.29462993,14.375 Z M0,10 C0.338292089,10.3436848 0.726868305,10.6488023 1.16505319,10.9152153 C2.66224116,11.843064 3.90490432,12.6206369 4.89694471,13.2501481 L5.16129032,13.4181636 L0,18.125 L0,10 Z M20,10 L20,18.125 L14.8387097,13.4199594 C15.9387583,12.7196375 17.2745237,11.8848634 18.8461558,10.9151922 C19.284516,10.641668 19.6690807,10.3367636 20,10 Z M18.2141256,5 C18.697759,5 19.1163948,5.16394336 19.4699241,5.49165986 C19.8230538,5.81978486 20,6.21374592 20,6.67415577 C20,7.22521786 19.8174982,7.75187228 19.4534749,8.2539488 C19.0887981,8.75602533 18.635049,9.18518519 18.0919372,9.54081563 C16.2860914,10.7158224 14.9233917,11.6029071 13.9981009,12.20561 C13.489594,12.5366285 13.111373,12.7831223 12.8686666,12.9414488 C12.8326818,12.9651757 12.7764716,13.0026552 12.7017787,13.0529003 C12.6213486,13.1068559 12.5195674,13.1756196 12.3942562,13.2606209 C12.1524213,13.4245983 11.9515459,13.5570874 11.7915572,13.6583265 C11.631278,13.7593614 11.4379554,13.8727192 11.2110808,13.998332 C10.9839884,14.1239788 10.7701497,14.2181032 10.5693106,14.2808415 C10.3683625,14.3435458 10.1823384,14.375 10.0112747,14.375 L10.0112747,14.375 L9.98905207,14.375 C9.81795207,14.375 9.63196433,14.3435458 9.43105254,14.2808415 C9.23017707,14.2181032 9.01615682,14.1237745 8.78924597,13.998332 C8.56215357,13.8727192 8.36857671,13.7595997 8.20880591,13.6583265 C8.04881724,13.5570874 7.84794177,13.4245643 7.60614319,13.2606209 C7.48057786,13.1756196 7.3787966,13.10689 7.29836653,13.0527301 C7.22370999,13.0026893 7.1674634,12.9649714 7.13169653,12.9414488 C6.82014347,12.736043 6.44279388,12.4885281 6.00523976,12.2027165 C5.49190343,11.8670684 4.89454219,11.4781114 4.20763668,11.0318627 C2.93517118,10.2054058 2.17248347,9.70833333 1.91957356,9.54081563 C1.45823537,9.24788943 1.02289625,8.84517974 0.613774059,8.3324823 C0.204651872,7.81958061 0,7.34351171 0,6.90413943 C0,6.36019199 0.154215135,5.90662446 0.463153767,5.54394744 C0.771838218,5.18144063 1.21247883,5 1.78562026,5 L1.78562026,5 Z" id="Combined-Shape"></path>
            </g>
        </g>
    </g>
</svg>