<?xml version="1.0" encoding="UTF-8"?>
<svg width="20px" height="20px" viewBox="0 0 20 20" version="1.1" xmlns="http://www.w3.org/2000/svg" xmlns:xlink="http://www.w3.org/1999/xlink">
    <!-- Generator: Sketch 57.1 (83088) - https://sketch.com -->
    <title>Path</title>
    <desc>Created with Sketch.</desc>
    <g id="Page-1" stroke="none" stroke-width="1" fill="none" fill-rule="evenodd">
        <g id="1440-x-900" transform="translate(-1159.000000, -90.000000)" fill="#B8394B" fill-rule="nonzero">
            <g id="Group-9" transform="translate(909.000000, 89.000000)">
                <path d="M269.551637,16.8190362 L266.462948,13.7230042 C265.847739,13.1088771 264.82894,13.1275359 264.192299,13.7658503 L262.636204,15.3251249 C262.537893,15.2708187 262.436134,15.2140937 262.329146,15.1539134 C261.346488,14.6082018 260.001554,13.8602384 258.586291,12.4407318 C257.166833,11.0182306 256.419871,9.6681761 255.873727,8.68265879 C255.816096,8.57825027 255.760879,8.47758503 255.70635,8.38198761 L256.750718,7.33680829 L257.264168,6.82156121 C257.901787,6.18232542 257.919369,5.16150617 257.305596,4.54559384 L254.216908,1.44921629 C253.603135,0.834167797 252.583877,0.852826572 251.946258,1.49206236 L251.07576,2.36954306 L251.099548,2.39321207 C250.807658,2.76650273 250.563746,3.19703668 250.382235,3.66131766 C250.214915,4.10325419 250.110743,4.52497705 250.06311,4.94756374 C249.655268,8.33631968 251.200331,11.4333883 255.393431,15.6360469 C261.189569,21.444915 265.860495,21.0060883 266.062002,20.9846652 C266.500871,20.9320866 266.921468,20.8269871 267.348903,20.660613 C267.808112,20.4808207 268.237386,20.2367018 268.609602,19.9447841 L268.628621,19.9617152 L269.510496,19.096213 C270.146793,18.4570924 270.165122,17.4359276 269.551637,16.8190362 Z" id="Path"></path>
            </g>
        </g>
    </g>
</svg>