<?xml version="1.0" encoding="UTF-8"?>
<svg width="152px" height="38px" viewBox="0 0 152 38" version="1.1" xmlns="http://www.w3.org/2000/svg" xmlns:xlink="http://www.w3.org/1999/xlink">
    <!-- Generator: Sketch 57.1 (83088) - https://sketch.com -->
    <title>nuovalogo copy</title>
    <desc>Created with Sketch.</desc>
    <g id="-" stroke="none" stroke-width="1" fill="none" fill-rule="evenodd">
        <g id="Footer" transform="translate(-104.000000, -43.000000)" fill-rule="nonzero">
            <g id="nuovalogo-copy" transform="translate(104.000000, 43.000000)">
                <path d="M43.216274,32.8610669 C43.3754456,36.7094807 46.6583592,37.9656986 50.0208587,37.9656986 C53.3236688,37.9656986 56.6264789,36.7294206 56.6264789,32.9009468 C56.6264789,30.2090512 54.358284,29.3715725 52.0303998,28.8331934 C49.7622049,28.3147543 47.5338029,28.1153546 47.5338029,26.6796769 C47.5338029,25.5032188 48.8469683,25.3436991 49.7423084,25.3436991 C51.1748525,25.3436991 52.3487429,25.7624384 52.4482251,27.297816 L56.2285499,27.297816 C55.9301032,23.7485017 53.0053256,22.6717434 49.8417906,22.6717434 C46.737945,22.6717434 43.5545136,23.6288619 43.5545136,27.3376959 C43.5545136,29.8900117 45.8426049,30.6876105 48.1505927,31.2060497 C50.9957845,31.8241887 52.6471896,32.242928 52.6471896,33.439326 C52.6471896,34.8550637 51.194749,35.293743 50.0407551,35.293743 C48.4689358,35.293743 47.0164952,34.5958442 46.9965988,32.861067 L43.216274,32.861067 L43.216274,32.861067 L43.216274,32.8610669 Z M58.5166413,37.5668992 L62.4959306,37.5668992 L62.4959306,23.0705427 L58.5166413,23.0705427 L58.5166413,37.5668992 Z M58.5166413,20.8173264 L62.4959306,20.8173264 L62.4959306,17.5471717 L58.5166413,17.5471717 L58.5166413,20.8173264 L58.5166413,20.8173264 Z M64.3661965,37.5668994 L68.3454858,37.5668994 L68.3454858,29.1522329 C68.3454858,26.3207575 70.2555447,25.8222583 71.0315061,25.8222583 C73.5583548,25.8222583 73.4389761,27.7564352 73.4389761,29.4313925 L73.4389761,37.5668994 L77.4182654,37.5668994 L77.4182654,29.4912124 C77.4182654,27.6567354 77.8360908,25.8222584 80.0644928,25.8222584 C82.3326877,25.8222584 82.5117557,27.4174558 82.5117557,29.3516327 L82.5117557,37.5668994 L86.491045,37.5668994 L86.491045,27.8561351 C86.491045,24.1074212 84.2825395,22.6717435 81.1985903,22.6717435 C79.1691527,22.6717435 77.6570228,23.8282617 76.8213721,25.0844796 C76.0454107,23.3497024 74.413902,22.6717435 72.6033254,22.6717435 C70.7330595,22.6717435 69.2209295,23.5491021 68.1863143,25.0246597 L68.126625,25.0246597 L68.126625,23.0705428 L64.3661965,23.0705428 L64.3661965,37.5668994 L64.3661965,37.5668994 L64.3661965,37.5668994 Z M87.2272135,30.328691 C87.2272135,34.9348235 90.1718875,37.9656986 94.7082773,37.9656986 C99.2645636,37.9656986 102.209238,34.9348235 102.209238,30.328691 C102.209238,25.7026185 99.2645635,22.6717434 94.7082773,22.6717434 C90.1718875,22.6717434 87.2272135,25.7026185 87.2272135,30.328691 Z M91.2065028,30.328691 C91.2065028,27.9957148 92.0222571,25.6826785 94.7082773,25.6826785 C97.4141941,25.6826785 98.2299484,27.9957148 98.2299484,30.328691 C98.2299484,32.6417272 97.4141941,34.9547635 94.7082773,34.9547635 C92.0222571,34.9547635 91.2065028,32.6417272 91.2065028,30.328691 Z M103.681575,37.5668993 L107.660864,37.5668993 L107.660864,29.9697715 C107.660864,27.0186563 108.576101,25.8222583 110.744813,25.8222583 C112.595183,25.8222583 113.291558,26.9987164 113.291558,29.3715725 L113.291558,37.5668993 L117.270848,37.5668993 L117.270848,28.6537337 C117.270848,25.0645395 116.19644,22.6717434 111.978393,22.6717434 C110.287195,22.6717434 108.556204,23.4494021 107.541485,25.0844795 L107.4619,25.0844795 L107.4619,23.0705428 L103.681575,23.0705428 L103.681575,37.5668993 L103.681575,37.5668993 Z M133.188005,31.2858094 C133.466555,26.8192567 131.078981,22.6717434 126.164559,22.6717434 C121.767444,22.6717434 118.763081,25.981778 118.763081,30.328691 C118.763081,34.8151837 121.588376,37.9656986 126.164559,37.9656986 C129.427576,37.9656986 131.81515,36.5100809 132.929351,33.0804065 L129.427576,33.0804065 C129.188819,33.977705 127.89555,34.9547634 126.303834,34.9547634 C124.075432,34.9547634 122.861749,33.8181852 122.74237,31.2858094 L133.188005,31.2858094 L133.188005,31.2858094 Z M122.74237,28.7534335 C122.80206,27.6367953 123.518332,25.6826785 126.04518,25.6826785 C127.975136,25.6826785 128.850579,26.7394968 129.208715,28.7534335 L122.74237,28.7534335 Z M134.83941,37.5668992 L138.818699,37.5668992 L138.818699,17.5471717 L134.83941,17.5471717 L134.83941,37.5668992 L134.83941,37.5668992 L134.83941,37.5668992 Z M140.967515,37.5668992 L144.926908,37.5668992 L144.926908,17.5471717 L140.967515,17.5471717 L140.967515,37.5668992 L140.967515,37.5668992 Z M147.095621,37.5668992 L151.055014,37.5668992 L151.055014,23.0705427 L147.095621,23.0705427 L147.095621,37.5668992 Z M147.095621,20.8173264 L151.055014,20.8173264 L151.055014,17.5471717 L147.095621,17.5471717 L147.095621,20.8173264 L147.095621,20.8173264 Z M43.9126497,14.895156 L47.891939,14.895156 L47.891939,7.29802822 C47.891939,4.34691299 48.8071755,3.15051496 50.9758882,3.15051496 C52.8262578,3.15051496 53.5226333,4.32697308 53.5226333,6.69982923 L53.5226333,14.895156 L57.4820262,14.895156 L57.4820262,5.98199037 C57.4820262,2.3927962 56.4275145,6.69266829e-08 52.2094679,6.69266829e-08 C50.5182699,6.69266829e-08 48.7872791,0.797598779 47.7725603,2.41273618 L47.6929745,2.41273618 L47.6929745,0.398799456 L43.9126497,0.398799456 L43.9126497,14.895156 L43.9126497,14.895156 Z M72.4441539,0.398799322 L68.4648646,0.398799322 L68.4648646,7.9959271 C68.4648646,10.9470423 67.5297316,12.1434404 65.3809153,12.1434404 C63.5305458,12.1434404 62.8341702,10.9669822 62.8341702,8.59412608 L62.8341702,0.398799322 L58.8548809,0.398799322 L58.8548809,9.31196494 C58.8548809,12.9011591 59.929289,15.2939552 64.1473357,15.2939552 C65.8385336,15.2939552 67.5695245,14.5162965 68.5643468,12.8812191 L68.663829,12.8812191 L68.663829,14.8951559 L72.4441539,14.8951559 L72.4441539,0.398799322 L72.4441539,0.398799322 L72.4441539,0.398799322 Z M73.0808401,7.65694765 C73.0808401,12.2630802 76.0056178,15.2939552 80.5420076,15.2939552 C85.1181902,15.2939552 88.0429678,12.2630802 88.0429678,7.65694765 C88.0429678,3.03087515 85.1181902,6.6926682e-08 80.5420076,6.6926682e-08 C76.0056178,6.6926682e-08 73.0808401,3.03087515 73.0808401,7.65694765 Z M77.040233,7.65694765 C77.040233,5.34391136 77.8559873,3.01093517 80.5420076,3.01093517 C83.2678207,3.01093517 84.0835751,5.34391136 84.0835751,7.65694765 C84.0835751,9.96998393 83.2678207,12.2830201 80.5420076,12.2830201 C77.8559873,12.2830201 77.040233,9.96998386 77.040233,7.65694765 Z M101.870998,0.398799389 L97.9315017,0.398799389 L94.8674489,10.3089633 L94.8077596,10.3089633 L91.7636033,0.398799389 L87.605246,0.398799389 L92.5594612,14.8951559 L96.9764723,14.8951559 L101.870998,0.398799389 L101.870998,0.398799389 L101.870998,0.398799389 Z M110.307091,9.29202496 C110.307091,10.1693835 110.207609,12.6219995 107.103763,12.6219995 C105.810494,12.6219995 104.656501,12.2630801 104.656501,10.7875225 C104.656501,9.31196488 105.790598,8.89322557 107.004281,8.65394595 C108.237861,8.41466633 109.650509,8.39472635 110.307091,7.79652737 L110.307091,9.29202496 L110.307091,9.29202496 Z M105.114119,4.86535212 C105.253394,3.29009468 106.22832,2.67195565 107.74045,2.67195565 C109.133201,2.67195565 110.307091,2.93117525 110.307091,4.6260725 C110.307091,6.26114988 108.058793,6.18138997 105.61153,6.5403094 C103.144371,6.87928885 100.677211,7.65694758 100.677211,10.9470423 C100.677211,13.9180975 102.86582,15.2939552 105.61153,15.2939552 C107.382314,15.2939552 109.232683,14.8153959 110.486159,13.4993581 C110.506056,13.9779173 110.625435,14.4564766 110.76471,14.8951559 L114.803688,14.8951559 C114.425656,14.3168968 114.286381,13.0008589 114.286381,11.684821 L114.286381,4.12757328 C114.286381,0.658018922 110.824399,0 107.939414,0 C104.696294,0 101.353691,1.13657816 101.13483,4.86535212 L105.114119,4.86535212 L105.114119,4.86535212 Z" id="svg_1" fill="#FFFFFF"></path>
                <path d="M30.202554,7.66790095 L13.1524028,7.66790095 L13.1524028,7.86674499 L31.2019767,24.7684901 C31.6017457,25.0866406 31.8615957,25.3849067 32.2613648,25.6235195 C32.4212724,25.106525 32.4212724,23.8538074 32.4212724,23.8538074 L32.4212724,0.867434075 L39.1773699,0.867434075 L39.1573814,30.9326559 C38.65767,33.5375131 36.5988593,36.2815611 33.8404526,36.8582089 C31.8815841,37.1962438 31.3418959,37.1564749 31.3418959,37.1564749 L9.01479279,37.1564749 L9.01479279,30.6343898 L26.6446092,30.6343898 L26.724563,30.5747366 L24.2459947,28.0891858 L7.09590121,12.181661 L6.95598201,12.5992336 L6.95598201,37.1365905 C4.61733292,37.1365905 2.35863763,37.1564749 0,37.1564749 L0,7.52871002 C0.239861456,5.18235013 1.45915713,2.93541226 3.61791017,1.72246351 C4.61733285,1.20546898 5.75667473,1.00662487 6.89601662,0.807780822 L30.2025539,0.807780822 L30.2025539,7.66790088 L30.202554,7.66790095 Z" id="svg_2" fill="#B8394B"></path>
            </g>
        </g>
    </g>
</svg>