<?xml version="1.0" encoding="UTF-8"?>
<svg width="189px" height="48px" viewBox="0 0 189 48" version="1.1" xmlns="http://www.w3.org/2000/svg" xmlns:xlink="http://www.w3.org/1999/xlink">
    <!-- Generator: Sketch 57.1 (83088) - https://sketch.com -->
    <title>nuovalogo</title>
    <desc>Created with Sketch.</desc>
    <g id="Page-1" stroke="none" stroke-width="1" fill="none" fill-rule="evenodd">
        <g id="1440-x-900" transform="translate(-103.000000, -62.000000)">
            <g id="nuovalogo" transform="translate(103.000000, 62.000000)">
                <g>
                    <path d="M54.0203425,41.0763336 C54.219307,45.8868508 58.322949,47.4571233 62.5260733,47.4571233 C66.654586,47.4571233 70.7830986,45.9117758 70.7830986,41.1261836 C70.7830986,37.761314 67.947855,36.7144657 65.0379997,36.0414918 C62.2027561,35.3934429 59.4172536,35.1441932 59.4172536,33.3495962 C59.4172536,31.8790235 61.0587104,31.6796239 62.1778855,31.6796239 C63.9685657,31.6796239 65.4359286,32.203048 65.5602814,34.1222699 L70.2856874,34.1222699 C69.912629,29.6856271 66.256657,28.3396793 62.3022383,28.3396793 C58.4224313,28.3396793 54.443142,29.5360774 54.443142,34.1721199 C54.443142,37.3625147 57.3032562,38.3595131 60.1882408,39.0075621 C63.7447307,39.7802359 65.808987,40.30366 65.808987,41.7991575 C65.808987,43.5688296 63.9934362,44.1171788 62.5509438,44.1171788 C60.5861698,44.1171788 58.770619,43.2448052 58.7457485,41.0763338 L54.0203425,41.0763338 L54.0203425,41.0763338 L54.0203425,41.0763336 Z M73.1458016,46.9586241 L78.1199132,46.9586241 L78.1199132,28.8381784 L73.1458016,28.8381784 L73.1458016,46.9586241 Z M73.1458016,26.0216579 L78.1199132,26.0216579 L78.1199132,21.9339646 L73.1458016,21.9339646 L73.1458016,26.0216579 L73.1458016,26.0216579 Z M80.4577456,46.9586242 L85.4318573,46.9586242 L85.4318573,36.4402911 C85.4318573,32.9009469 87.8194308,32.2778229 88.7893826,32.2778229 C91.9479435,32.2778229 91.7987201,34.695544 91.7987201,36.7892406 L91.7987201,46.9586242 L96.7728318,46.9586242 L96.7728318,36.8640155 C96.7728318,34.5709192 97.2951135,32.277823 100.080616,32.277823 C102.91586,32.277823 103.139695,34.2718198 103.139695,36.6895409 L103.139695,46.9586242 L108.113806,46.9586242 L108.113806,34.8201689 C108.113806,30.1342765 105.353174,28.3396794 101.498238,28.3396794 C98.9614409,28.3396794 97.0712785,29.7853271 96.0267151,31.3555995 C95.0567633,29.187128 93.0173775,28.3396794 90.7541568,28.3396794 C88.4163243,28.3396794 86.5261619,29.4363776 85.2328929,31.2808246 L85.1582812,31.2808246 L85.1582812,28.8381785 L80.4577456,28.8381785 L80.4577456,46.9586242 L80.4577456,46.9586242 L80.4577456,46.9586242 Z M109.034017,37.9108637 C109.034017,43.6685294 112.714859,47.4571232 118.385347,47.4571232 C124.080704,47.4571232 127.761547,43.6685294 127.761547,37.9108637 C127.761547,32.1282731 124.080704,28.3396792 118.385347,28.3396792 C112.714859,28.3396792 109.034017,32.1282731 109.034017,37.9108637 Z M114.008128,37.9108637 C114.008128,34.9946435 115.027821,32.1033481 118.385347,32.1033481 C121.767743,32.1033481 122.787435,34.9946435 122.787435,37.9108637 C122.787435,40.8021591 121.767743,43.6934543 118.385347,43.6934543 C115.027821,43.6934543 114.008128,40.802159 114.008128,37.9108637 Z M129.601968,46.9586241 L134.57608,46.9586241 L134.57608,37.4622144 C134.57608,33.7733204 135.720126,32.2778228 138.431016,32.2778228 C140.743978,32.2778228 141.614448,33.7483955 141.614448,36.7144657 L141.614448,46.9586241 L146.58856,46.9586241 L146.58856,35.8171671 C146.58856,31.3306744 145.245549,28.3396792 139.972991,28.3396792 C137.858994,28.3396792 135.695255,29.3117526 134.426857,31.3555994 L134.327374,31.3555994 L134.327374,28.8381785 L129.601968,28.8381785 L129.601968,46.9586241 L129.601968,46.9586241 Z M166.485006,39.1072618 C166.833194,33.5240709 163.848727,28.3396792 157.705699,28.3396792 C152.209306,28.3396792 148.453851,32.4772225 148.453851,37.9108637 C148.453851,43.5189796 151.985471,47.4571232 157.705699,47.4571232 C161.78447,47.4571232 164.768937,45.6376012 166.161689,41.3505081 L161.78447,41.3505081 C161.486024,42.4721313 159.869437,43.6934542 157.879793,43.6934542 C155.09429,43.6934542 153.577186,42.2727315 153.427963,39.1072617 L166.485006,39.1072617 L166.485006,39.1072618 Z M153.427963,35.9417919 C153.502575,34.5459942 154.397915,32.1033481 157.556476,32.1033481 C159.96892,32.1033481 161.063224,33.424371 161.510894,35.9417919 L153.427963,35.9417919 Z M168.549262,46.9586241 L173.523374,46.9586241 L173.523374,21.9339646 L168.549262,21.9339646 L168.549262,46.9586241 L168.549262,46.9586241 L168.549262,46.9586241 Z M176.209394,46.9586241 L181.158635,46.9586241 L181.158635,21.9339646 L176.209394,21.9339646 L176.209394,46.9586241 L176.209394,46.9586241 Z M183.869526,46.9586241 L188.818767,46.9586241 L188.818767,28.8381784 L183.869526,28.8381784 L183.869526,46.9586241 Z M183.869526,26.0216579 L188.818767,26.0216579 L188.818767,21.9339646 L183.869526,21.9339646 L183.869526,26.0216579 L183.869526,26.0216579 Z M54.8908121,18.618945 L59.8649237,18.618945 L59.8649237,9.12253527 C59.8649237,5.43364124 61.0089694,3.93814369 63.7198603,3.93814369 C66.0328222,3.93814369 66.9032917,5.40871635 66.9032917,8.37478654 L66.9032917,18.618945 L71.8525327,18.618945 L71.8525327,7.47748797 C71.8525327,2.99099525 70.5343931,8.36583531e-08 65.2618349,8.36583531e-08 C63.1478374,8.36583531e-08 60.9840988,0.996998473 59.7157004,3.01592023 L59.6162182,3.01592023 L59.6162182,0.49849932 L54.8908121,0.49849932 L54.8908121,18.618945 L54.8908121,18.618945 Z M90.5551923,0.498499153 L85.5810807,0.498499153 L85.5810807,9.99490887 C85.5810807,13.6838029 84.4121645,15.1793004 81.7261442,15.1793004 C79.4131822,15.1793004 78.5427128,13.7087278 78.5427128,10.7426576 L78.5427128,0.498499153 L73.5686012,0.498499153 L73.5686012,11.6399562 C73.5686012,16.1264489 74.9116112,19.1174441 80.1841696,19.1174441 C82.298167,19.1174441 84.4619056,18.1453706 85.7054335,16.1015239 L85.8297863,16.1015239 L85.8297863,18.6189448 L90.5551923,18.6189448 L90.5551923,0.498499153 L90.5551923,0.498499153 L90.5551923,0.498499153 Z M91.3510502,9.57118456 C91.3510502,15.3288502 95.0070222,19.1174441 100.677509,19.1174441 C106.397738,19.1174441 110.05371,15.3288502 110.05371,9.57118456 C110.05371,3.78859393 106.397738,8.36583531e-08 100.677509,8.36583531e-08 C95.0070222,8.36583531e-08 91.3510502,3.78859393 91.3510502,9.57118456 Z M96.3002912,9.57118456 C96.3002912,6.6798892 97.3199841,3.76366896 100.677509,3.76366896 C104.084776,3.76366896 105.104469,6.6798892 105.104469,9.57118456 C105.104469,12.4624799 104.084776,15.3537752 100.677509,15.3537752 C97.3199841,15.3537752 96.3002912,12.4624798 96.3002912,9.57118456 Z M127.338748,0.498499237 L122.414377,0.498499237 L118.584311,12.8862041 L118.5097,12.8862041 L114.704504,0.498499237 L109.506558,0.498499237 L115.699326,18.6189449 L121.22059,18.6189449 L127.338748,0.498499237 L127.338748,0.498499237 L127.338748,0.498499237 Z M137.883864,11.6150312 C137.883864,12.7117294 137.759511,15.7774994 133.879704,15.7774994 C132.263118,15.7774994 130.820626,15.3288501 130.820626,13.4844031 C130.820626,11.6399561 132.238248,11.116532 133.755352,10.8174324 C135.297326,10.5183329 137.063136,10.4934079 137.883864,9.74565921 L137.883864,11.6150312 L137.883864,11.6150312 Z M131.392649,6.08169015 C131.566742,4.11261835 132.7854,3.33994456 134.675562,3.33994456 C136.416501,3.33994456 137.883864,3.66396906 137.883864,5.78259063 C137.883864,7.82643736 135.073491,7.72673746 132.014413,8.17538675 C128.930463,8.59911106 125.846514,9.57118448 125.846514,13.6838028 C125.846514,17.3976218 128.582276,19.117444 132.014413,19.117444 C134.227892,19.117444 136.540854,18.5192449 138.107699,16.8741976 C138.13257,17.4723967 138.281793,18.0705957 138.455887,18.6189448 L143.50461,18.6189448 C143.03207,17.896121 142.857976,16.2510737 142.857976,14.6060263 L142.857976,5.1594666 C142.857976,0.822523653 138.530499,0 134.924268,0 C130.870367,0 126.692113,1.4207227 126.418537,6.08169015 L131.392649,6.08169015 L131.392649,6.08169015 Z" id="svg_1" fill="#1E1E1E" fill-rule="nonzero"></path>
                    <path d="M37.7531925,9.58487618 L16.4405035,9.58487618 L16.4405035,9.83343124 L39.0024709,30.9606126 C39.5021822,31.3583007 39.8269946,31.7311334 40.326706,32.0293994 C40.5265906,31.3831562 40.5265906,29.8172593 40.5265906,29.8172593 L40.5265906,1.08429259 L48.9717123,1.08429259 L48.9467267,38.6658199 C48.3220875,41.9218914 45.7485741,45.3519514 42.3005658,46.0727611 C39.8519802,46.4953047 39.1773699,46.4455937 39.1773699,46.4455937 L11.268491,46.4455937 L11.268491,38.2929872 L33.3057615,38.2929872 L33.4057037,38.2184208 L30.3074934,35.1114823 L8.86987651,15.2270763 L8.69497752,15.7490419 L8.69497752,46.4207382 C5.77166615,46.4207382 2.94829703,46.4455937 0,46.4455937 L0,9.41088753 C0.29982682,6.47793766 1.82394642,3.66926532 4.52238771,2.15307938 C5.77166607,1.50683622 7.19584342,1.25828108 8.62002077,1.00972603 L37.7531924,1.00972603 L37.7531924,9.5848761 L37.7531925,9.58487618 Z" id="svg_2" fill="#B8394B" fill-rule="nonzero"></path>
                </g>
            </g>
        </g>
    </g>
</svg>